<?xml version="1.0" encoding="UTF-8"?>
<svg id="Layer_2" data-name="Layer 2" xmlns="http://www.w3.org/2000/svg" viewBox="0 0 306.39 251.93">
  <defs>
    <style>
      .cls-1 {
        fill: #b5b8ac;
      }

      .cls-1, .cls-2 {
        stroke-width: 0px;
      }

      .cls-2 {
        fill: #e4d6a4;
      }
    </style>
  </defs>
  <g id="Layer_1-2" data-name="Layer 1">
    <g>
      <path class="cls-2" d="m47.11,71.85c0-.71-.16-1.28-.49-1.7-.33-.42-.94-.63-1.85-.63v-1.17h33.47c3.11,0,5.75.34,7.93,1.02,2.17.68,3.94,1.62,5.3,2.82,1.36,1.2,2.35,2.6,2.97,4.18.61,1.59.92,3.33.92,5.21,0,2.53-.54,4.72-1.6,6.57-1.07,1.85-2.97,3.13-5.69,3.85v.19c2.79.65,4.93,2.09,6.42,4.33,1.49,2.24,2.24,4.95,2.24,8.12,0,4.74-1.49,8.4-4.48,11-2.99,2.59-7.88,3.89-14.69,3.89h-32.79v-1.17c.91,0,1.52-.21,1.85-.63.32-.42.49-.99.49-1.7v-44.17Zm30.45,16.93c3.7,0,6.26-.55,7.69-1.65,1.43-1.1,2.14-2.79,2.14-5.06s-.71-3.96-2.14-5.06c-1.43-1.1-3.99-1.65-7.69-1.65h-22.28v13.43h22.28Zm2.14,23.74c3.11,0,5.46-.71,7.05-2.14,1.59-1.43,2.38-3.5,2.38-6.23s-.79-4.8-2.38-6.23c-1.59-1.43-3.94-2.14-7.05-2.14h-24.42v16.74h24.42Z"/>
      <path class="cls-2" d="m108.23,117.12c0,.68.09,1.13.27,1.35.18.22.59.33,1.23.33v.72h-6.72v-.72c.64,0,1.05-.11,1.23-.33.18-.22.27-.67.27-1.35v-21.6c0-.68-.09-1.13-.27-1.35-.18-.22-.59-.33-1.23-.33v-.72h18.36c2.64,0,4.56.66,5.76,1.98,1.2,1.32,1.8,3.12,1.8,5.4s-.63,4.07-1.89,5.25c-1.26,1.18-3.05,1.81-5.37,1.89l6.6,10.08c.28.44.52.73.72.87.2.14.46.21.78.21v.72h-6.48v-.72c.44,0,.71-.03.81-.09.1-.06.15-.19.15-.39s-.06-.4-.18-.6c-.12-.2-.28-.48-.48-.84l-5.88-9.24h-9.48v9.48Zm12.78-12.84c1.44,0,2.46-.32,3.06-.96.6-.64.9-1.62.9-2.94,0-1.44-.31-2.49-.93-3.15-.62-.66-1.83-.99-3.63-.99h-12.18v8.04h12.78Z"/>
      <path class="cls-2" d="m167.27,111.12c0,1.68-.4,3.08-1.2,4.2-.8,1.12-1.84,2.01-3.12,2.67-1.28.66-2.7,1.11-4.26,1.35-1.56.24-3.1.36-4.62.36s-3.06-.12-4.62-.36c-1.56-.24-2.98-.69-4.26-1.35-1.28-.66-2.32-1.55-3.12-2.67-.8-1.12-1.2-2.52-1.2-4.2v-15.6c0-.68-.08-1.13-.24-1.35-.16-.22-.5-.33-1.02-.33v-.72h6.24v.72c-.52,0-.86.11-1.02.33-.16.22-.24.67-.24,1.35v14.82c0,2.28.86,3.88,2.58,4.8s4.02,1.38,6.9,1.38,5.18-.46,6.9-1.38c1.72-.92,2.58-2.52,2.58-4.8v-14.82c0-.68-.08-1.13-.24-1.35-.16-.22-.5-.33-1.02-.33v-.72h6.24v.72c-.52,0-.86.11-1.02.33-.16.22-.24.67-.24,1.35v15.6Z"/>
      <path class="cls-2" d="m205.01,118.8c.64,0,1.07-.11,1.29-.33.22-.22.33-.67.33-1.35v-18.84h-.12l-10.86,19.98-10.86-19.98h-.12v18.84c0,.68.11,1.13.33,1.35.22.22.65.33,1.29.33v.72h-6.6v-.72c.64,0,1.07-.11,1.29-.33.22-.22.33-.67.33-1.35v-21.6c0-.68-.11-1.13-.33-1.35-.22-.22-.65-.33-1.29-.33v-.72h8.04v.72c-.96,0-1.44.22-1.44.66,0,.08.12.34.36.78l9,16.38,9-16.38c.24-.44.36-.7.36-.78,0-.44-.48-.66-1.44-.66v-.72h8.16v.72c-.56,0-.93.11-1.11.33-.18.22-.27.67-.27,1.35v21.6c0,.68.09,1.13.27,1.35.18.22.55.33,1.11.33v.72h-6.72v-.72Z"/>
      <path class="cls-1" d="m152.58,135.53c0-.31-.22-.61-.66-.89-.44-.28-1.19-.42-2.25-.42h-25.44v9.95h16.52c1.06,0,1.72-.11,1.97-.33s.41-.58.47-1.08h1.69v9.86h-1.69c-.06-.5-.22-.88-.47-1.13-.25-.25-.91-.38-1.97-.38h-16.52v14.37c0,.5.22.86.66,1.08.44.22.94.33,1.5.33v1.69h-12.96v-1.69c1.19,0,1.78-.47,1.78-1.41v-35.11c0-.94-.66-1.41-1.97-1.41v-1.69h36.43c1.06,0,1.81-.16,2.25-.47.44-.31.66-.72.66-1.22h1.69v9.95h-1.69Z"/>
      <g>
        <path class="cls-1" d="m156.41,168.36c.64,0,1.05-.11,1.23-.33s.27-.67.27-1.35v-21.6c0-.68-.09-1.13-.27-1.35s-.59-.33-1.23-.33v-.72h6.72v.72c-.64,0-1.05.11-1.23.33s-.27.67-.27,1.35v21.6c0,.68.09,1.13.27,1.35s.59.33,1.23.33v.72h-6.72v-.72Z"/>
        <path class="cls-1" d="m176.81,145.08c0-.68-.09-1.13-.27-1.35s-.55-.33-1.11-.33v-.72h24.18c.6,0,1-.11,1.2-.33.2-.22.3-.59.3-1.11h.72v6.24h-.72c0-.52-.1-.89-.3-1.11-.2-.22-.6-.33-1.2-.33h-18.84v7.8h13.26c.6,0,1-.11,1.2-.33.2-.22.3-.59.3-1.11h.72v6.24h-.72c0-.52-.1-.89-.3-1.11-.2-.22-.6-.33-1.2-.33h-13.26v8.52h19.5c.6,0,1-.11,1.2-.33.2-.22.3-.59.3-1.11h.72v6.06h-.72c0-.52-.1-.86-.3-1.02-.2-.16-.6-.24-1.2-.24h-24.84v-.72c.56,0,.93-.11,1.11-.33s.27-.67.27-1.35v-21.6Z"/>
        <path class="cls-1" d="m237.65,170.22c0-.44-.1-.74-.3-.9-.2-.16-.6-.24-1.2-.24h-24.06v-.72c.64,0,1.05-.11,1.23-.33s.27-.67.27-1.35v-21.6c0-.68-.09-1.13-.27-1.35s-.59-.33-1.23-.33v-.72h6.72v.72c-.64,0-1.05.11-1.23.33s-.27.67-.27,1.35v20.64h18.84c.6,0,1-.13,1.2-.39.2-.26.3-.73.3-1.41h.72v6.3h-.72Z"/>
        <path class="cls-1" d="m246.59,145.08c0-.68-.09-1.13-.27-1.35-.18-.22-.59-.33-1.23-.33v-.72h14.52c2.36,0,4.4.34,6.12,1.02,1.72.68,3.13,1.61,4.23,2.79,1.1,1.18,1.91,2.57,2.43,4.17.52,1.6.78,3.34.78,5.22s-.26,3.57-.78,5.19c-.52,1.62-1.33,3.02-2.43,4.2-1.1,1.18-2.51,2.11-4.23,2.79-1.72.68-3.76,1.02-6.12,1.02h-14.52v-.72c.64,0,1.05-.11,1.23-.33.18-.22.27-.67.27-1.35v-21.6Zm12.3,20.64c1.88,0,3.47-.26,4.77-.78s2.36-1.23,3.18-2.13c.82-.9,1.42-1.94,1.8-3.12.38-1.18.57-2.45.57-3.81s-.19-2.63-.57-3.81c-.38-1.18-.98-2.22-1.8-3.12-.82-.9-1.88-1.61-3.18-2.13-1.3-.52-2.89-.78-4.77-.78h-8.58v19.68h8.58Z"/>
      </g>
      <path class="cls-1" d="m138.69,251.93c-25.89,0-50.84-5.49-72.78-16.27-33.63-16.52-56.16-43.47-63.43-75.89-7.27-32.42,1.59-66.41,24.94-95.71C50.75,34.8,85.75,13.71,125.99,4.68,166.23-4.35,206.89-.23,240.49,16.27c33.63,16.52,56.16,43.47,63.43,75.89,7.27,32.42-1.59,66.41-24.94,95.71-23.33,29.27-58.34,50.36-98.58,59.39-13.96,3.13-27.97,4.68-41.71,4.68ZM167.71,1c-13.67,0-27.61,1.54-41.49,4.66-40.02,8.98-74.83,29.94-98.01,59.03C5.04,93.75-3.75,127.44,3.45,159.56c7.2,32.12,29.54,58.83,62.89,75.21,33.39,16.4,73.82,20.49,113.84,11.51,40.02-8.98,74.83-29.94,98.01-59.03,23.16-29.06,31.95-62.75,24.75-94.87h0c-7.2-32.12-29.54-58.83-62.89-75.21C218.24,6.46,193.44,1,167.71,1Z"/>
    </g>
  </g>
</svg>